0
SECTION
2
HEADER
9
$INSUNITS
70
4
9
$ACADVER
1
AC1014
9
$HANDSEED
5
FFFF
0
ENDSEC
0
SECTION
2
TABLES
0
TABLE
2
VPORT
5
8
100
AcDbSymbolTable
0
ENDTAB
0
TABLE
2
LTYPE
5
5
100
AcDbSymbolTable
0
LTYPE
5
14
100
AcDbSymbolTableRecord
100
AcDbLinetypeTableRecord
2
BYBLOCK
70
0
0
LTYPE
5
15
100
AcDbSymbolTableRecord
100
AcDbLinetypeTableRecord
2
BYLAYER
70
0
0
LTYPE
5
16
100
AcDbSymbolTableRecord
100
AcDbLinetypeTableRecord
2
DASHED
70
0
3
Dashed __ __ __ __ __ __ __ __ __ __ __ __ __ _
72
65
73
2
40
0.75
49
0.5
74
0
49
-0.25
74
0
0
ENDTAB
0
TABLE
2
LAYER
5
2
100
AcDbSymbolTable
70
2
0
LAYER
5
50
100
AcDbSymbolTableRecord
100
AcDbLayerTableRecord
2
0
70
0
62
7
6
CONTINUOUS
0
ENDTAB
0
TABLE
2
STYLE
5
3
100
AcDbSymbolTable
70
1
0
STYLE
5
11
100
AcDbSymbolTableRecord
100
AcDbTextStyleTableRecord
2
STANDARD
70
0
0
ENDTAB
0
TABLE
2
VIEW
5
6
100
AcDbSymbolTable
70
0
0
ENDTAB
0
TABLE
2
UCS
5
7
100
AcDbSymbolTable
70
0
0
ENDTAB
0
TABLE
2
APPID
5
9
100
AcDbSymbolTable
70
2
0
APPID
5
12
100
AcDbSymbolTableRecord
100
AcDbRegAppTableRecord
2
ACAD
70
0
0
ENDTAB
0
TABLE
2
DIMSTYLE
5
A
100
AcDbSymbolTable
70
1
0
ENDTAB
0
TABLE
2
BLOCK_RECORD
5
1
100
AcDbSymbolTable
70
1
0
BLOCK_RECORD
5
1F
100
AcDbSymbolTableRecord
100
AcDbBlockTableRecord
2
*MODEL_SPACE
0
BLOCK_RECORD
5
1B
100
AcDbSymbolTableRecord
100
AcDbBlockTableRecord
2
*PAPER_SPACE
0
ENDTAB
0
ENDSEC
0
SECTION
2
BLOCKS
0
BLOCK
5
20
100
AcDbEntity
100
AcDbBlockBegin
2
*MODEL_SPACE
0
ENDBLK
5
21
100
AcDbEntity
100
AcDbBlockEnd
0
BLOCK
5
1C
100
AcDbEntity
100
AcDbBlockBegin
2
*PAPER_SPACE
0
ENDBLK
5
1D
100
AcDbEntity
100
AcDbBlockEnd
0
ENDSEC
0
SECTION
2
ENTITIES
0
POINT
5
100
100
AcDbEntity
8
0
100
AcDbPoint
10
0
20
-10
30
0
0
LWPOLYLINE
5
101
100
AcDbEntity
8
0
100
AcDbPolyline
90
8
70
1
43
0.0
10
39.5
20
-12.000000000000002
42
0.41421356237309298
10
42
20
-9.5000000000000018
10
42
20
9.5000000000000018
42
0.41421356237309298
10
39.5
20
12.000000000000002
10
-39.5
20
12.000000000000002
42
0.41421356237309298
10
-42
20
9.5000000000000018
10
-42
20
-9.5000000000000018
42
0.41421356237309298
10
-39.5
20
-12.000000000000002
0
CIRCLE
5
102
100
AcDbEntity
8
0
100
AcDbCircle
10
-16
20
8
30
0
40
2.1000000000000001
210
0
220
0
230
1
0
CIRCLE
5
103
100
AcDbEntity
8
0
100
AcDbCircle
10
16
20
8
30
0
40
2.1000000000000001
210
0
220
0
230
1
0
LWPOLYLINE
5
104
100
AcDbEntity
8
0
100
AcDbPolyline
90
16
70
1
43
0.0
10
40.149999999999999
20
-6.562132034355975
10
36.562132034355983
20
-10.149999999999999
10
-36.562132034355976
20
-10.150000000000004
10
-40.149999999999999
20
-6.5621320343559306
10
-40.149999999999999
20
6.5621320343559733
10
-36.562132034355955
20
10.149999999999997
10
-21.937867965644031
20
10.150000000000002
10
-19.849506550821452
20
8.0616385851774233
42
1.016140259416547
10
-12.150493449178544
20
8.0616385851774073
10
-10.062132034355962
20
10.150000000000002
10
10.062132034355965
20
10.150000000000002
10
12.150493449178544
20
8.0616385851774233
42
1.016140259416547
10
19.849506550821459
20
8.0616385851774055
10
21.937867965644035
20
10.150000000000002
10
36.562132034355997
20
10.150000000000002
10
40.149999999999999
20
6.5621320343559733
0
LWPOLYLINE
5
105
100
AcDbEntity
8
0
100
AcDbPolyline
90
8
70
1
43
0.0
10
41.000000000000007
20
-9.4999999999999982
10
41.000000000000007
20
9.5
42
0.41421356237309259
10
39.5
20
11
10
-39.500000000000007
20
11
42
0.41421356237309132
10
-41.000000000000007
20
9.4999999999999982
10
-41.000000000000007
20
-9.5
42
0.41421356237309259
10
-39.5
20
-11
10
39.500000000000007
20
-11
42
0.41421356237309132
0
LWPOLYLINE
5
106
100
AcDbEntity
8
0
100
AcDbPolyline
90
4
70
1
43
0.0
10
10.5
20
-12.000000000000002
10
19.5
20
-12.000000000000002
10
19.5
20
-10.149999821186068
10
10.5
20
-10.149999821186068
0
LWPOLYLINE
5
107
100
AcDbEntity
8
0
100
AcDbPolyline
90
4
70
1
43
0.0
10
-8.5
20
-12.000000000000002
10
-21.500000000000004
20
-12.000000000000002
10
-21.500000000000004
20
-10.150000000000002
10
-8.5
20
-10.150000000000002
0
ENDSEC
0
SECTION
2
OBJECTS
0
DICTIONARY
5
C
100
AcDbDictionary
3
ACAD_GROUP
350
D
3
ACAD_MLINESTYLE
350
17
0
DICTIONARY
5
D
100
AcDbDictionary
0
DICTIONARY
5
1A
330
C
100
AcDbDictionary
0
DICTIONARY
5
17
100
AcDbDictionary
0
ENDSEC
0
EOF
